screens;
 
http://baypic.net/img-516477357ed3f.html

General
Complete name                            : /home/baypic/torrents/completed/mygf.13.04.09.nikkita.take.that.mp4
Format                                   : MPEG-4
Format profile                           : Base Media
Codec ID                                 : isom
File size                                : 1.13 GiB
Duration                                 : 52mn 38s
Overall bit rate                         : 3 079 Kbps
Encoded date                             : UTC 2012-07-13 22:30:06
Tagged date                              : UTC 2012-07-13 22:30:06
Writing application                      : Lavf53.32.100

Video
ID                                       : 1
Format                                   : AVC
Format/Info                              : Advanced Video Codec
Format profile                           : Main@L3.2
Format settings, CABAC                   : Yes
Format settings, ReFrames                : 6 frames
Codec ID                                 : avc1
Codec ID/Info                            : Advanced Video Coding
Duration                                 : 52mn 38s
Bit rate                                 : 3 000 Kbps
Width                                    : 1 024 pixels
Height                                   : 768 pixels
Display aspect ratio                     : 4:3
Frame rate mode                          : Constant
Frame rate                               : 29.970 fps
Color space                              : YUV
Chroma subsampling                       : 4:2:0
Bit depth                                : 8 bits
Scan type                                : Progressive
Bits/(Pixel*Frame)                       : 0.127
Stream size                              : 1.09 GiB (97%)
 English
Encoded date                             : UTC 2012-07-13 22:30:06
Tagged date                              : UTC 2012-07-13 22:30:06

Audio
ID                                       : 2
Format                                   : AAC
Format/Info                              : Advanced Audio Codec
Format profile                           : LC
Codec ID                                 : 40
Duration                                 : 52mn 38s
Bit rate mode                            : Constant
Bit rate                                 : 96.0 Kbps
Channel(s)                               : 2 channels
Channel positions                        : Front: L R
Sampling rate                            : 44.1 KHz
Compression mode                         : Lossy
Stream size                              : 36.1 MiB (3%)
Language                                 : English
Encoded date                             : UTC 2012-07-13 22:30:06
Tagged date                              : UTC 2012-07-13 22:30:06